<svg width="50" height="56" viewBox="0 0 50 56" fill="none" xmlns="http://www.w3.org/2000/svg">
<rect width="50" height="56" fill="#1E1E1E"/>
<rect width="722" height="170" transform="translate(-71 -88)" fill="white"/>
<path d="M11 9V13.4878M11 9C11 9.95751 11 11.5279 11 13.4878M11 9H20.5625M11 39.8537V13.4878M11 39.8537C11 33.2344 11 20.7138 11 13.4878M11 39.8537V46.5854V55H20.5625L24.5 32.561M24.5 32.561L28.2212 55H38V39.2927V32.561V20.7805M24.5 32.561V13.4878M11 42.6585C11 43.1073 11 42.8455 11 43.7805M24.5 13.4878H28.4375M24.5 13.4878H20.5625M38 13.4878V9H28.4375M38 13.4878H30.6875M38 13.4878V20.7805M11 13.4878H17.75M28.4375 13.4878V9M28.4375 13.4878H30.6875M28.4375 9H20.5625M20.5625 9V13.4878M20.5625 13.4878H17.75M17.75 13.4878C18.125 15.9187 17.4125 20.7805 11.5625 20.7805M30.6875 13.4878C30.6875 14.0488 31.25 21.3415 38 20.7805" stroke="black" stroke-width="2" stroke-linecap="round" stroke-linejoin="round"/>
</svg>
