<svg width="24" height="24" viewBox="0 0 24 24" fill="none" xmlns="http://www.w3.org/2000/svg">
<path d="M15.75 15.75L13.261 13.261M13.261 13.261C13.5744 12.9476 13.823 12.5755 13.9926 12.1661C14.1622 11.7566 14.2495 11.3177 14.2495 10.8745C14.2495 10.4313 14.1622 9.99241 13.9926 9.58294C13.823 9.17346 13.5744 8.8014 13.261 8.488C12.9476 8.1746 12.5755 7.926 12.1661 7.75639C11.7566 7.58678 11.3177 7.49948 10.8745 7.49948C10.4313 7.49948 9.99241 7.58678 9.58294 7.75639C9.17346 7.926 8.8014 8.1746 8.488 8.488C7.85493 9.12107 7.49927 9.9797 7.49927 10.875C7.49927 11.7703 7.85493 12.6289 8.488 13.262C9.12107 13.8951 9.9797 14.2507 10.875 14.2507C11.7703 14.2507 12.6289 13.8951 13.262 13.262L13.261 13.261ZM21 12C21 13.1819 20.7672 14.3522 20.3149 15.4442C19.8626 16.5361 19.1997 17.5282 18.364 18.364C17.5282 19.1997 16.5361 19.8626 15.4442 20.3149C14.3522 20.7672 13.1819 21 12 21C10.8181 21 9.64778 20.7672 8.55585 20.3149C7.46392 19.8626 6.47177 19.1997 5.63604 18.364C4.80031 17.5282 4.13738 16.5361 3.68508 15.4442C3.23279 14.3522 3 13.1819 3 12C3 9.61305 3.94821 7.32387 5.63604 5.63604C7.32387 3.94821 9.61305 3 12 3C14.3869 3 16.6761 3.94821 18.364 5.63604C20.0518 7.32387 21 9.61305 21 12Z" stroke="black" stroke-width="1.5" stroke-linecap="round" stroke-linejoin="round"/>
</svg>
