<svg width="24" height="24" viewBox="0 0 24 24" fill="none" xmlns="http://www.w3.org/2000/svg">
<path d="M16.023 9.348H21.015L17.834 6.165C16.8099 5.14087 15.5342 4.40439 14.1352 4.02961C12.7362 3.65482 11.2632 3.65493 9.86426 4.02992C8.46532 4.40492 7.18976 5.14159 6.16579 6.16587C5.14183 7.19015 4.40556 8.46595 4.03099 9.865M2.98499 19.644V14.652M2.98499 14.652H7.97699M2.98499 14.652L6.16499 17.835C7.18911 18.8591 8.46479 19.5956 9.86378 19.9704C11.2628 20.3452 12.7358 20.3451 14.1347 19.9701C15.5337 19.5951 16.8092 18.8584 17.8332 17.8341C18.8572 16.8099 19.5934 15.5341 19.968 14.135M21.015 4.356V9.346" stroke="black" stroke-width="1.5" stroke-linecap="round" stroke-linejoin="round"/>
</svg>
