<svg width="50" height="50" viewBox="0 0 50 50" fill="none" xmlns="http://www.w3.org/2000/svg">
<rect width="50" height="50" fill="#1E1E1E"/>
<rect width="722" height="170" transform="translate(-71 -88)" fill="white"/>
<path d="M12.5 20.5447V45.5447H39L39.08 41.5447M5.4471 16.0447C14.2041 7.34532 18.1093 5.04472 19 5.04471C19.5 7.21138 21.6 11.5447 26 11.5447C30.4 11.5447 32.1667 7.21138 32.5 5.04471C34.7499 4.4019 41.2395 10.8182 45.9509 16.0447M5.4471 16.0447C4.37229 17.1125 3.22439 18.2766 2 19.5447L8 25.0447L16 17.0447L11 21.5447L5.4471 16.0447ZM40.2059 21.5447L35.5 16.5447L39.5 20.5447L39.08 41.5447M40.2059 21.5447L43.5 25.0447L49 19.5447C48.1486 18.5296 47.1029 17.3227 45.9509 16.0447M40.2059 21.5447L45.9509 16.0447M39.08 41.5447C37.016 41.1447 22.8333 41.378 16 41.5447" stroke="black" stroke-width="2" stroke-linecap="round" stroke-linejoin="round"/>
</svg>
