<svg width="49" height="43" viewBox="0 0 49 43" fill="none" xmlns="http://www.w3.org/2000/svg">
<path d="M11.5 16.5447V41.5447H38L38.08 37.5447M4.4471 12.0447C13.2041 3.34532 17.1093 1.04472 18 1.04471C18.5 3.21138 20.6 7.54471 25 7.54471C29.4 7.54471 31.1667 3.21138 31.5 1.04471C33.7499 0.401896 40.2395 6.81816 44.9509 12.0447M4.4471 12.0447C3.37229 13.1125 2.22439 14.2766 1 15.5447L7 21.0447L15 13.0447L10 17.5447L4.4471 12.0447ZM39.2059 17.5447L34.5 12.5447L38.5 16.5447L38.08 37.5447M39.2059 17.5447L42.5 21.0447L48 15.5447C47.1486 14.5296 46.1029 13.3227 44.9509 12.0447M39.2059 17.5447L44.9509 12.0447M38.08 37.5447C36.016 37.1447 21.8333 37.378 15 37.5447" stroke="black" stroke-width="2" stroke-linecap="round" stroke-linejoin="round"/>
</svg>
