<svg width="50" height="51" viewBox="0 0 50 51" fill="none" xmlns="http://www.w3.org/2000/svg">
<rect width="50" height="51" fill="#1E1E1E"/>
<rect width="722" height="170" transform="translate(-71 -88)" fill="white"/>
<path d="M24 14.1059C19.2 14.1059 19 12.6667 18.5 10.5C10.5 8.5 2 45.6812 2 46.1812L8.5 48.1059L12 39.1059M24 14.1059C28.8 14.1059 31 12.6667 31.5 10.5C32.476 10.0802 34.2596 11.0839 36.5 13.5M24 14.1059V49.6811M33 25.6059L36.7727 39.1059M36.7727 39.1059L40 48.1059L47.5 45.6059C43.1108 24.3912 39.9985 17.2729 36.5 13.5M36.7727 39.1059V49.6811H24M24 49.6811H17.5H12V39.1059M12 39.1059L16 25.6059M36.5 13.5C36.6667 10.5557 32.5 4 24 4C15.5147 4 13.38 12.1615 13.2133 14.1059" stroke="black" stroke-width="2" stroke-linecap="round" stroke-linejoin="round"/>
</svg>
