<svg width="51" height="50" viewBox="0 0 51 50" fill="none" xmlns="http://www.w3.org/2000/svg">
<rect width="51" height="50" fill="#1E1E1E"/>
<rect width="722" height="170" transform="translate(-71 -90)" fill="white"/>
<path d="M16.5 23.5L14 30.5M14 30.5L8.68072 45.9805L1 42.5L8.5 18.5C9.53614 14.9546 14.6904 7.89279 20.0783 9.51353M14 30.5L12.9692 33.5M37.1747 34.3314L34 23.5L40.8012 45.4741L49.5 43L40.8012 18.5C40.3258 16.2925 36.1082 12.2855 33.5 10.5M37.1747 34.3314L30.9578 31.7989V39.9027L38 42L37.8183 36.5M37.1747 34.3314L37.8183 36.5M29.9217 9.51353L24.5 11.5L20.0783 9.51353M29.9217 9.51353C25.3627 5.86683 21.4598 7.99407 20.0783 9.51353M29.9217 9.51353C31.6017 9.26085 32.3183 9.69101 33.5 10.5M12.9692 33.5L18.5241 31.7989V40.4092L11.6235 42M12.9692 33.5L11.6235 42M11.6235 42V47.5H20.0783H24.741H29.4036H38L37.8183 36.5M33.5 10.5C33.759 7.66667 32.5 2 24.5 2C16.2975 2 15.9337 7.5 15.9337 10" stroke="black" stroke-width="2" stroke-linecap="round" stroke-linejoin="round"/>
</svg>
