<svg width="29" height="29" viewBox="0 0 29 29" fill="none" xmlns="http://www.w3.org/2000/svg">
<path d="M14.5001 19.9375V11.7813M14.5001 11.7813L18.1251 15.4063M14.5001 11.7813L10.8751 15.4063M8.1563 23.5625C6.8627 23.5639 5.61097 23.1041 4.62591 22.2656C3.64085 21.4271 2.987 20.2649 2.78177 18.9877C2.57654 17.7105 2.83338 16.4019 3.50618 15.297C4.17897 14.1922 5.22363 13.3633 6.45255 12.9594C6.13682 11.3417 6.46314 9.66452 7.36241 8.28317C8.26168 6.90182 9.6633 5.92472 11.2704 5.55879C12.8776 5.19285 14.5641 5.46681 15.9727 6.32265C17.3814 7.17849 18.4016 8.54901 18.8174 10.144C19.4603 9.93492 20.1488 9.90976 20.8052 10.0714C21.4615 10.233 22.0597 10.5749 22.532 11.0585C23.0043 11.5421 23.332 12.1482 23.478 12.8082C23.624 13.4682 23.5826 14.1559 23.3583 14.7937C24.3475 15.1715 25.1733 15.8837 25.6923 16.8067C26.2113 17.7297 26.3909 18.8052 26.1999 19.8467C26.0089 20.8883 25.4593 21.8301 24.6465 22.5088C23.8337 23.1875 22.809 23.5603 21.7501 23.5625H8.1563Z" stroke="#9CA3AF" stroke-width="1.5" stroke-linecap="round" stroke-linejoin="round"/>
</svg>
