<svg width="32" height="32" viewBox="0 0 32 32" fill="none" xmlns="http://www.w3.org/2000/svg">
<path d="M23.976 24.9666C23.0443 23.7331 21.839 22.7328 20.4549 22.0445C19.0708 21.3561 17.5458 20.9986 16 21C14.4542 20.9986 12.9292 21.3561 11.5451 22.0445C10.161 22.7328 8.95565 23.7331 8.024 24.9666M23.976 24.9666C25.794 23.3496 27.0762 21.218 27.6549 18.8548C28.2337 16.4915 28.0803 14.0081 27.2153 11.7339C26.3502 9.4598 24.8143 7.50234 22.8112 6.12117C20.8081 4.74 18.4325 4.00037 15.9993 4.00037C13.5662 4.00037 11.1906 4.74 9.18747 6.12117C7.18436 7.50234 5.64844 9.4598 4.78338 11.7339C3.91832 14.0081 3.765 16.4915 4.34376 18.8548C4.92251 21.218 6.206 23.3496 8.024 24.9666M23.976 24.9666C21.7814 26.9242 18.9408 28.0042 16 28C13.0587 28.0045 10.219 26.9245 8.024 24.9666M20 13C20 14.0608 19.5786 15.0783 18.8284 15.8284C18.0783 16.5785 17.0609 17 16 17C14.9391 17 13.9217 16.5785 13.1716 15.8284C12.4214 15.0783 12 14.0608 12 13C12 11.9391 12.4214 10.9217 13.1716 10.1715C13.9217 9.4214 14.9391 8.99997 16 8.99997C17.0609 8.99997 18.0783 9.4214 18.8284 10.1715C19.5786 10.9217 20 11.9391 20 13Z" stroke="#66BFBF" stroke-width="1.5" stroke-linecap="round" stroke-linejoin="round"/>
</svg>
